<?xml version="1.0" encoding="utf-8"?>
<!-- Generator: Adobe Illustrator 18.0.0, SVG Export Plug-In . SVG Version: 6.00 Build 0)  -->
<!DOCTYPE svg PUBLIC "-//W3C//DTD SVG 1.1//EN" "http://www.w3.org/Graphics/SVG/1.1/DTD/svg11.dtd">
<svg version="1.1" id="Layer_1" xmlns="http://www.w3.org/2000/svg" xmlns:xlink="http://www.w3.org/1999/xlink" x="0px" y="0px"
	 width="72px" height="72px" viewBox="0 0 72 72" enable-background="new 0 0 72 72" xml:space="preserve">
<g>
	<path fill="#F58229" d="M49,42.5l-13-13l-13,13l10.9,10.9c1.2,1.2,3.1,1.2,4.2,0L49,42.5z"/>
	<path fill="#F36C21" d="M36,29.5L25.1,18.7c-1.2-1.2-3.1-1.2-4.2,0l-8.7,8.7c-1.2,1.2-1.2,3.1,0,4.2L23,42.5L36,29.5z"/>
	<path fill="#F8972B" d="M59.8,27.4l-8.7-8.7c-1.2-1.2-3.1-1.2-4.2,0L36,29.5l13,13l10.9-10.9C61,30.5,61,28.6,59.8,27.4z"/>
</g>
</svg>
